<svg width="106" height="49" viewBox="0 0 106 49" fill="none" xmlns="http://www.w3.org/2000/svg">
<path d="M28.3975 43.84L0.8775 30.08V23.68L28.3975 9.92V15.488L8.5575 25.216C7.74683 25.6 6.97883 25.9413 6.2535 26.24C5.57083 26.496 5.05883 26.6667 4.7175 26.752C5.1015 26.8373 5.65617 27.0293 6.3815 27.328C7.10683 27.584 7.83217 27.904 8.5575 28.288L28.3975 38.08V43.84ZM53.2685 48.64C48.7458 48.64 45.1405 47.4453 42.4525 45.056C39.7645 42.6667 38.4205 39.3813 38.4205 35.2H44.1805C44.1805 37.8027 45.0125 39.8507 46.6765 41.344C48.3405 42.7947 50.5378 43.52 53.2685 43.52C55.9138 43.52 58.0258 42.752 59.6045 41.216C61.1832 39.68 61.9725 37.6747 61.9725 35.2C61.9725 33.3227 61.4605 31.7013 60.4365 30.336C59.4552 28.928 58.0258 27.968 56.1485 27.456L49.0445 25.472C46.1005 24.6187 43.7752 23.104 42.0685 20.928C40.4045 18.7093 39.5725 16.1067 39.5725 13.12C39.5725 10.6453 40.1272 8.46933 41.2365 6.592C42.3458 4.71466 43.9032 3.264 45.9085 2.24C47.9138 1.17333 50.2178 0.639999 52.8205 0.639999C55.4658 0.639999 57.7912 1.17333 59.7965 2.24C61.8445 3.264 63.4445 4.71466 64.5965 6.592C65.7485 8.42666 66.3245 10.56 66.3245 12.992H60.5645C60.5645 10.8587 59.8392 9.13067 58.3885 7.808C56.9378 6.44267 55.0818 5.76 52.8205 5.76C50.5592 5.76 48.7245 6.44267 47.3165 7.808C45.9085 9.13067 45.2045 10.8587 45.2045 12.992C45.2045 14.6987 45.6525 16.1707 46.5485 17.408C47.4872 18.6027 48.7885 19.4347 50.4525 19.904L57.7485 21.952C60.8632 22.8053 63.2738 24.4267 64.9805 26.816C66.7298 29.1627 67.6045 31.9573 67.6045 35.2C67.6045 39.296 66.3032 42.56 63.7005 44.992C61.0978 47.424 57.6205 48.64 53.2685 48.64ZM77.6275 43.84V38.272L97.4675 28.544C98.2782 28.16 99.0248 27.84 99.7075 27.584C100.433 27.2853 100.966 27.0933 101.308 27.008C100.924 26.9227 100.369 26.7307 99.6435 26.432C98.9182 26.1333 98.1928 25.8133 97.4675 25.472L77.6275 15.68V9.92L105.148 23.68V30.08L77.6275 43.84Z" fill="black"/>
</svg>
