<svg width="1200" height="800" viewBox="0 0 1200 800" fill="none" xmlns="http://www.w3.org/2000/svg">
<mask id="mask0_545_3" style="mask-type:luminance" maskUnits="userSpaceOnUse" x="138" y="307" width="185" height="186">
<path d="M251.26 458.486C263.348 458.337 274.82 456.568 284.974 453.158C287.528 452.296 289.969 451.342 292.277 450.311C289.451 457.209 285.302 462.963 279.892 467.24C269.22 475.097 256.629 480.487 242.962 482.543C246.378 476.635 249.137 468.286 251.26 458.486ZM194.371 475.246C194.12 475.035 193.848 474.84 193.54 474.697C188.786 472.379 186.863 461.778 189.34 445.568C198.479 449.675 208.428 452.932 218.884 455.163C226.808 456.855 234.706 457.901 242.424 458.306C238.639 474.758 233.788 483.4 230.572 483.4C230.367 483.4 230.167 483.436 229.972 483.466C217.233 483.379 205.161 480.451 194.371 475.246M150.231 422.839C149.499 420.057 149.037 417.211 148.851 414.341C151.713 418.413 155.195 422.382 159.344 426.218C165.611 432.003 173.047 437.183 181.334 441.624C179.642 451.091 179.165 459.671 180.232 466.584C165.949 455.783 155.262 440.496 150.231 422.839ZM256.65 399.848C256.65 396.504 256.599 393.145 256.501 389.802C267.153 389.094 277.015 386.325 285.087 381.683C292.564 396.474 296.574 412.079 296.544 426.808C296.538 431.075 296.169 435.131 295.492 438.962C291.646 441.316 287.22 443.357 282.24 445.039C273.399 448.014 263.44 449.634 252.88 449.906C255.424 434.69 256.65 417.023 256.65 399.848M220.679 446.798C210.074 444.527 200.053 441.157 190.981 436.896C193.961 423.49 199.509 407.248 208.299 389.217C209.576 386.607 210.879 384.037 212.207 381.524C218.356 384.283 225.049 386.473 232.064 387.971C237.393 389.114 242.726 389.735 247.942 389.914C248.039 393.125 248.08 396.433 248.08 399.848C248.08 420.008 246.47 436.742 244.142 449.819C236.49 449.486 228.608 448.486 220.679 446.798M165.16 419.936C157.887 413.218 152.887 406.1 150.339 399.033C152.359 391.114 156.267 383.165 162.016 375.55C167.467 368.329 174.252 361.826 182.032 356.236C184.278 360.293 187.422 364.252 191.427 368.006C195.232 371.57 199.668 374.801 204.587 377.627C203.221 380.217 201.898 382.83 200.617 385.463C193.022 401.028 186.822 417.731 183.181 432.88C176.416 429.07 170.339 424.731 165.16 419.936ZM250.834 340.379C260.568 347.626 269.491 356.975 276.953 367.909C278.369 369.98 279.702 372.088 280.969 374.216C274.133 378.17 265.476 380.535 256.147 381.196C255.358 366.421 253.609 352.205 250.834 340.379M233.859 379.601C227.664 378.283 221.777 376.381 216.351 373.996C224.341 360.021 233.075 347.872 241.695 338.841C244.388 349.436 246.644 363.683 247.598 381.345C243.06 381.155 238.444 380.586 233.859 379.601ZM197.279 361.76C193.735 358.447 191.048 354.99 189.237 351.518C197.258 346.692 206.135 342.759 215.592 339.913C221.218 338.22 226.91 336.969 232.587 336.102C224.392 345.287 216.207 356.954 208.705 370.134C204.417 367.657 200.576 364.852 197.279 361.76ZM178.868 334.482C178.75 334.913 178.627 335.354 178.529 335.805C177.663 339.841 177.765 343.98 178.781 348.082C169.57 354.436 161.559 361.949 155.18 370.391C153.236 372.96 151.498 375.586 149.923 378.227C154.667 360.698 164.985 345.446 178.868 334.482M186.899 337.59C187.847 333.148 190.519 329.179 194.648 325.897C204.643 322.912 216.269 323.63 228.49 328.102C223.346 328.994 218.202 330.184 213.13 331.718C203.689 334.548 194.776 338.425 186.612 343.133C186.427 341.261 186.514 339.405 186.899 337.59ZM256.352 326.312C259.291 324.41 261.999 323.107 264.26 322.569C268.553 324.287 272.809 326.487 276.845 329.266C270.368 327.646 263.481 326.661 256.352 326.312M241.931 317.148C245.403 317.538 249.111 318.132 252.922 319.02C250.537 320.302 248.065 321.902 245.547 323.825C244.429 321.297 243.224 319.071 241.931 317.148ZM232.654 320.507C228.782 319.025 224.956 317.876 221.182 317.056C224.208 316.717 227.269 316.522 230.387 316.522C231.844 316.538 233.634 318.291 235.506 321.681C234.557 321.276 233.608 320.876 232.654 320.507ZM138.461 399.997C138.461 408.746 139.718 417.203 142.01 425.228C142.148 425.767 142.282 426.305 142.441 426.844C142.472 426.941 142.518 427.034 142.554 427.141C154.164 464.686 189.201 492.036 230.505 492.036C249.614 492.036 267.373 486.179 282.102 476.179C282.251 476.092 282.399 476.02 282.533 475.928C283.405 475.333 284.251 474.707 285.071 474.051C302.01 461.542 314.513 443.373 319.785 422.351C320.083 421.387 320.339 420.403 320.555 419.408C320.606 419.167 320.621 418.941 320.632 418.705C321.888 412.659 322.544 406.402 322.544 400.002C322.544 387.581 320.114 375.524 315.308 364.18C314.385 362.001 311.877 360.98 309.698 361.908C307.518 362.821 306.503 365.339 307.421 367.514C311.775 377.796 313.98 388.73 313.98 400.002C313.98 406.91 313.124 413.618 311.529 420.044C310.262 424.095 308.041 427.844 304.969 431.249C305.046 429.798 305.093 428.331 305.098 426.828C305.134 410.407 300.59 393.063 292.169 376.76C298.344 371.457 302.287 364.903 303.636 357.575C304.067 355.252 302.528 353.021 300.205 352.59C297.877 352.154 295.646 353.693 295.215 356.021C294.323 360.867 291.805 365.314 287.866 369.088C286.641 367.062 285.369 365.057 284.02 363.083C276.507 352.067 267.578 342.538 257.809 334.933C270.707 335.784 282.625 338.908 292.225 344.272C293.728 345.128 295.728 345.103 297.138 343.928C298.954 342.415 299.2 339.708 297.677 337.892C283.887 318.604 260.035 307.963 230.495 307.963C179.755 307.958 138.461 349.246 138.461 399.997" fill="white"/>
</mask>
<g mask="url(#mask0_545_3)">
<path d="M138.461 307.958H322.544V492.036H138.461V307.958Z" fill="url(#paint0_radial_545_3)"/>
</g>
<path d="M342.804 348.996H389.277V358.529H372.21V406.346H359.886V358.529H342.809L342.804 348.996ZM395.801 406.342V348.991H408.12V371.628H429.807V348.992H442.275V406.342H429.966V381.157H408.119V406.342H395.801ZM452.31 348.996H490.763V358.529H464.634V371.956H489.101V381.484H464.634V396.819H491.64V406.347H452.315L452.31 348.996ZM551.938 348.996H565.831L575.841 392.132H575.997L585.218 348.996H596.972L582.356 406.346H568.699L558.377 362.652H558.221L547.087 406.346H533.117L519.137 348.996H531.851L540.662 392.132H540.837L551.938 348.996ZM601.158 377.673C601.158 360.755 609.733 347.795 628.713 347.795C647.688 347.795 656.278 360.749 656.278 377.673C656.278 394.597 647.688 407.531 628.713 407.531C609.722 407.531 601.158 394.591 601.158 377.673ZM614.251 377.673C614.251 387.509 616.559 398.633 628.708 398.633C640.862 398.633 643.17 387.509 643.17 377.673C643.17 367.816 640.862 356.688 628.708 356.688C616.558 356.688 614.251 367.822 614.251 377.673ZM676.698 406.342H664.379V348.991H688.759C698.616 349.069 708.703 352.243 708.703 363.93C708.703 371.392 703.858 376.326 696.79 377.828V377.983C706.247 379.014 706.247 384.809 707.277 392.758C707.841 396.414 708.309 403.168 710.611 406.333H697.026C696 401.255 695.436 396.091 694.888 390.922C694.563 387.751 693.766 383.382 689.723 383.228H676.702V406.332L676.698 406.342ZM676.698 373.694H687.011C692.427 373.598 695.596 370.915 695.596 365.823C695.596 360.745 692.427 358.596 687.011 358.52H676.698V373.694ZM718.142 406.342V348.991H730.46V396.813H755.323V406.342H718.142ZM761.978 348.996H781.528C799.391 348.841 810.514 357.73 810.514 377.674C810.514 397.608 799.391 406.501 781.529 406.343H761.978V348.996ZM774.287 396.813H780.641C795.267 396.968 797.416 386.798 797.416 377.673C797.416 368.534 795.268 358.37 780.642 358.529H774.287V396.813ZM841.705 406.342V348.991H863.234C873.481 348.355 883.968 352.653 883.968 363.849C883.968 370.121 879.589 374.496 873.876 376.393V376.549C881.112 378.062 886.502 383.067 886.502 391.477C886.502 402.837 872.194 406.976 863.388 406.334L841.705 406.342ZM863.629 396.808C869.429 396.808 873.399 395.773 873.399 389.183C873.399 382.593 869.435 381.557 863.629 381.557H854.008V396.814L863.629 396.808ZM863.629 372.033C868.794 372.033 871.644 369.885 871.644 365.279C871.644 360.664 868.789 358.53 863.629 358.53H854.008V372.038L863.629 372.033ZM890.327 406.342L911.066 348.991H925.682L945.611 406.342H933.231L929.098 394.187H906.379L902.081 406.342H890.327ZM925.995 384.66L918.133 360.192H917.98L909.563 384.66H925.995ZM986.289 406.342L963.647 358.679L963.493 358.834V406.334H951.978V348.983H970.241L992.1 394.103L992.253 393.929V348.972H1003.77V406.327L986.289 406.342ZM1026.11 373.776H1026.26L1045.33 348.991H1059.71L1038.65 374.649L1061.54 406.343H1046.21L1026.27 377.11H1026.11V406.343H1013.81V348.99H1026.11L1026.11 373.776Z" fill="#002F54"/>
<defs>
<radialGradient id="paint0_radial_545_3" cx="0" cy="0" r="1" gradientUnits="userSpaceOnUse" gradientTransform="translate(315.008 338.301) scale(152.452 152.455)">
<stop stop-color="white"/>
<stop offset="0.0598" stop-color="#E7F6FD"/>
<stop offset="0.1829" stop-color="#AFE2FA"/>
<stop offset="0.3589" stop-color="#37C6F4"/>
<stop offset="0.544" stop-color="#00AEEF"/>
<stop offset="1" stop-color="#002F54"/>
</radialGradient>
</defs>
</svg>
